<svg viewBox="0 0 24 24" xmlns="http://www.w3.org/2000/svg"><g stroke-linecap="round" stroke-width="2" stroke="#FFF" fill="none" stroke-linejoin="round"><path d="M6.75 12V8.1l-.01 0c.04-.79.71-1.39 1.49-1.36l-.01 0c.78-.04 1.45.56 1.5 1.35v3.9"/><path d="M6.75 9.75l3 0" stroke-width="1.5"/><path d="M14.25 18.75h2.25 -.01c.41-.01.75.33.75.75v.75 0c0 .41-.34.75-.75.75h-2.25v-2.25Z" stroke-width="1.5"/><path d="M14.25 16.5h2.25 -.01c.41-.01.75.33.75.75V18v0c0 .41-.34.75-.75.75h-2.25V16.5Z" stroke-width="1.5"/><path d="M7.5 17.25v4.881l0 0c0 .62.51 1.12 1.13 1.11h13.56l-.01-.001c.57 0 1.04-.47 1.04-1.04 0-.01 0-.01 0-.01V10.84l0 0c-.01-.63-.52-1.12-1.14-1.12h-2.62"/><path d="M19.5 13.5l3.75 0"/><path d="M16.5 13.21V1.86l0 0c-.01-.63-.52-1.12-1.14-1.12H1.86l0 0C1.24.73.73 1.23.73 1.85v11.26l0 0c0 .62.51 1.12 1.13 1.11h13.56l-.01-.001c.57 0 1.04-.47 1.04-1.04 0-.01 0-.01 0-.01Z"/><path d="M.75 4.5l15.75 0"/></g></svg>