<svg width="50" height="50" viewBox="0 0 50 50" fill="none" xmlns="http://www.w3.org/2000/svg">
<path d="M48.8167 21.925C43.3063 15.8625 34.1667 9.45416 25 9.58333C15.8333 9.45208 6.69376 15.8646 1.18335 21.925C0.427989 22.7695 0.0103912 23.8628 0.0103912 24.9958C0.0103912 26.1289 0.427989 27.2221 1.18335 28.0667C6.62918 34.0646 15.6396 40.4167 24.6646 40.4167H25.3063C34.3625 40.4167 43.3708 34.0646 48.8229 28.0646C49.5773 27.2196 49.9937 26.1263 49.9925 24.9936C49.9914 23.8609 49.5727 22.7684 48.8167 21.925Z" fill="black"/>
<path d="M25 31.1667C28.4058 31.1667 31.1667 28.4058 31.1667 25C31.1667 21.5942 28.4058 18.8333 25 18.8333C21.5942 18.8333 18.8333 21.5942 18.8333 25C18.8333 28.4058 21.5942 31.1667 25 31.1667Z" fill="black" stroke="white" stroke-width="4"/>
</svg>
