<svg width="24" height="24" viewBox="0 0 24 24" fill="none" xmlns="http://www.w3.org/2000/svg">
<circle cx="12" cy="12" r="12" fill="white"/>
<path d="M17.113 12.666L12.181 17.811C12.1577 17.8354 12.1297 17.8547 12.0986 17.868C12.0676 17.8812 12.0342 17.888 12.0005 17.888C11.9668 17.888 11.9334 17.8812 11.9024 17.868C11.8714 17.8547 11.8433 17.8354 11.82 17.811L6.88701 12.665C6.59963 12.3855 6.37066 12.0516 6.2134 11.6828C6.05614 11.3141 5.97373 10.9177 5.97096 10.5168C5.96818 10.1159 6.0451 9.71848 6.19723 9.34756C6.34937 8.97665 6.5737 8.63966 6.85718 8.35617C7.14066 8.07269 7.47765 7.84836 7.84857 7.69623C8.21949 7.54409 8.61694 7.46718 9.01784 7.46995C9.41873 7.47273 9.81508 7.55514 10.1839 7.7124C10.5526 7.86965 10.8865 8.09862 11.166 8.38601L11.824 9.04501C11.8708 9.09162 11.934 9.11817 12 9.11901C12.0328 9.11886 12.0652 9.11224 12.0954 9.09954C12.1256 9.08685 12.153 9.06831 12.176 9.04501L12.834 8.38701C13.4014 7.81971 14.171 7.50106 14.9734 7.50115C15.7757 7.50124 16.5452 7.82007 17.1125 8.38751C17.6798 8.95494 17.9985 9.72448 17.9984 10.5269C17.9983 11.3292 17.6794 12.0987 17.112 12.666H17.113Z" fill="black"/>
</svg>
